<?xml version="1.0" encoding="UTF-8"?>
<svg id="Layer_1" data-name="Layer 1" xmlns="http://www.w3.org/2000/svg" width="2002.97" height="575.14" xmlns:xlink="http://www.w3.org/1999/xlink" viewBox="0 0 2002.97 575.14">
  <defs>
    <style>
      .cls-1 {
        fill: #fff;
      }

      .cls-2 {
        fill: #141925;
      }

      .cls-3 {
        fill: url(#linear-gradient);
      }
    </style>
    <linearGradient id="linear-gradient" x1="178.27" y1="346.82" x2="432.37" y2="200.12" gradientTransform="matrix(1, 0, 0, 1, 0, 0)" gradientUnits="userSpaceOnUse">
      <stop offset="0" stop-color="#4772ff"/>
      <stop offset=".56" stop-color="#be659d"/>
      <stop offset="1" stop-color="#ff5c42"/>
    </linearGradient>
  </defs>
  <rect class="cls-2" width="2002.97" height="575.14" rx="99.34" ry="99.34"/>
  <g>
    <g>
      <path class="cls-1" d="M662.09,311.41c0,14.84-2.26,26.67-6.69,35.18-8.13,15.45-23.36,22.96-46.55,22.96-19.06,0-32.18-6.92-40.11-21.17-5.47-9.68-8.24-22.11-8.24-36.97V171.64h-40.09v127.46c0,27.48,3.82,49.04,11.36,64.12,14.03,28.06,40.75,42.27,79.45,42.27s65.48-14.21,79.6-42.27c7.53-15.08,11.36-36.64,11.36-64.12v-127.46h-40.09v139.77Z"/>
      <path class="cls-1" d="M810.47,227.13c-11.01,0-21.18,2.21-30.23,6.58-5.74,2.77-11.31,6.68-16.63,11.67v-14.69h-35.49v169.01h36.83v-88.29c0-9.99,.63-17.65,1.88-22.8,1.12-4.76,3.68-9.51,7.6-14.13,4.95-5.82,10.45-9.58,16.96-11.51,3.54-1.12,8.26-1.7,14.04-1.7,10.58,0,17.33,3.81,21.25,11.98,2.52,5.21,3.81,12.35,3.81,21.23v105.2h37.27v-106.98c0-16.98-2.31-29.82-7.07-39.22-8.8-17.51-25.7-26.37-50.21-26.37Z"/>
      <path class="cls-1" d="M1038.48,276.58c4.02-2.74,7.38-5.64,10.06-8.69,8.62-9.71,12.99-22.22,12.99-37.19,0-12.78-3.49-24.25-10.42-34.07-11.74-16.58-31.45-24.99-58.59-24.99h-98.68v228.06h97.19c30.2,0,52.67-9.25,66.76-27.48,9.46-12.23,14.26-26.09,14.26-41.23,0-18.07-5.46-32.51-16.24-42.96-4.35-4.2-10.07-7.99-17.34-11.46Zm-30.12-17.47c-6.18,3.1-15.22,4.67-26.82,4.67h-48.65v-57.38h47.61c12.12,0,21.23,1.27,27.08,3.74,9.74,4.17,14.29,11.84,14.29,24.13s-4.42,20.29-13.52,24.84Zm-75.47,38.67h53.54c11.65,0,21.03,1.42,27.92,4.24,12.15,4.93,18.05,13.96,18.05,27.64,0,8.37-2.06,15.25-6.28,21.03-6.78,9.2-18.1,13.67-34.65,13.67h-58.59v-66.58Z"/>
      <rect class="cls-1" x="1088.35" y="171.64" width="36.83" height="228.06"/>
      <rect class="cls-1" x="1149.03" y="171.64" width="37.27" height="40.39"/>
      <rect class="cls-1" x="1149.03" y="231.43" width="37.27" height="168.27"/>
      <path class="cls-1" d="M1292.82,227.13c-11.01,0-21.18,2.21-30.23,6.58-5.74,2.77-11.31,6.68-16.63,11.67v-14.69h-35.49v169.01h36.83v-88.29c0-9.99,.63-17.65,1.88-22.8,1.12-4.76,3.68-9.51,7.6-14.13,4.95-5.82,10.45-9.58,16.96-11.51,3.54-1.12,8.26-1.7,14.04-1.7,10.58,0,17.33,3.81,21.25,11.98,2.52,5.21,3.81,12.35,3.81,21.23v105.2h37.27v-106.98c0-16.98-2.31-29.82-7.07-39.22-8.8-17.51-25.7-26.37-50.21-26.37Z"/>
      <polygon class="cls-1" points="1518.57 230.69 1469.96 230.69 1408.56 291.15 1408.56 171.64 1372.77 171.64 1372.77 399.7 1408.56 399.7 1408.56 337.23 1424.81 322.39 1472.63 399.7 1518.87 399.7 1451.83 295.97 1518.57 230.69"/>
      <path class="cls-1" d="M1651.65,257.89c-6.02-9.13-14.82-16.63-26.16-22.3-11.23-5.6-23.01-8.46-35.05-8.46-23.79,0-43.34,8.62-58.12,25.62-14.61,16.8-22.01,38.84-22.01,65.49s7.4,48.65,22.02,63.94c14.69,15.36,32.84,23.16,53.95,23.16,8.47,0,16.22-.84,22.95-2.51,12.82-2.97,23.77-8.8,32.44-17.26,5.21-4.88,9.96-11.23,14.11-18.86,4.2-7.71,6.73-14.9,7.48-21.33l.68-5.65h-35.8l-1.04,3.69c-1.75,6.25-4.78,11.8-8.97,16.52-7.37,8.16-17.06,12.13-29.62,12.13-13.34,0-22.83-4.1-29-12.54-5.7-7.81-9.12-18.13-10.15-30.74h116.17v-5.06c0-16.53-.81-28.34-2.44-35.85-1.9-11.34-5.75-21.43-11.44-29.99Zm-62.84,2.65c15.3,0,25.83,5.47,32.24,16.73,2.95,5.16,5.04,11.92,6.26,20.18h-77.1c1.24-10.09,4.99-18.38,11.42-25.24,7.37-7.85,16.25-11.67,27.17-11.67Z"/>
      <path class="cls-1" d="M1785.97,170.9v72.2c-2.95-2.84-5.74-5.08-8.42-6.74-8.98-5.64-20.18-8.49-33.25-8.49-23.62,0-42.07,9.28-54.81,27.59-12.38,17.74-18.64,38.95-18.64,63.07,0,25.86,6.96,46.96,20.67,62.74,13.91,15.97,30.66,24.07,49.82,24.07,11.74,0,22.35-2.37,31.53-7.09,5.31-2.7,10.24-6.41,14.74-11.04v12.5h34.16V170.9h-35.79Zm1.04,144.37c0,18.66-3.68,33.03-10.95,42.73-7.02,9.36-15.66,13.93-26.42,13.93-14.19,0-24.15-4.86-30.43-14.85-6.68-10.6-10.06-24.07-10.06-40.02,0-18.69,3.84-32.9,11.39-42.2,7.42-9.13,16.83-13.57,28.8-13.57,10.62,0,19.3,4.15,26.56,12.68,7.37,8.65,11.11,22.55,11.11,41.31Z"/>
    </g>
    <path class="cls-3" d="M290.49,178.06v92.21c0,3.97-3.2,7.04-7.04,7.04h-92.21c-3.84,0-7.04-3.07-7.04-7.04v-92.21c0-3.84,3.2-7.04,7.04-7.04h92.21c3.84,0,7.04,3.2,7.04,7.04Zm121.02,121.03H191.24c-3.84,0-7.04,3.2-7.04,7.04v33.3c0,36.37,29.58,65.95,65.96,65.95h102.45c36.37,0,65.96-29.58,65.96-65.95v-33.3c0-3.84-3.2-7.04-7.04-7.04Zm0-128.07h-92.21c-3.84,0-7.04,3.2-7.04,7.04v92.21c0,3.97,3.2,7.04,7.04,7.04h92.21c3.84,0,7.04-3.07,7.04-7.04v-92.21c0-3.84-3.2-7.04-7.04-7.04Z"/>
  </g>
</svg>